<svg width="128" height="43" viewBox="0 0 128 43" fill="none" xmlns="http://www.w3.org/2000/svg">
<path fill-rule="evenodd" clip-rule="evenodd" d="M119.176 17.8077C119.061 17.8348 118.945 18.1338 118.945 18.2966C118.922 19.384 118.899 22.265 118.899 24.2218C118.899 24.2763 118.968 24.385 119.038 24.385C119.384 24.4121 120.214 24.4392 120.929 24.4392C121.921 24.4392 122.498 24.2763 122.821 24.1134C123.651 23.6239 124.044 22.5639 124.044 21.395C124.044 18.759 122.475 17.7532 120.145 17.7532C119.983 17.7261 119.522 17.7261 119.176 17.8077V17.8077ZM125.128 29.9567C125.128 27.266 123.444 25.771 120.399 25.771C120.26 25.771 119.291 25.7439 119.061 25.7981C118.991 25.8255 118.899 25.8799 118.899 25.9615C118.899 27.8909 118.876 30.9625 118.945 32.1582C118.991 32.6745 119.315 33.4085 119.707 33.6258C120.122 33.8977 121.068 33.9519 121.714 33.9519C123.536 33.9519 125.128 32.7561 125.128 29.9567V29.9567ZM114.47 16.313C114.7 16.313 115.392 16.3943 117.169 16.3943C118.853 16.3943 120.191 16.3401 121.829 16.3401C123.836 16.3401 126.604 17.1825 126.604 20.7158C126.604 22.4553 125.566 23.8416 124.205 24.521C124.136 24.5481 124.136 24.6023 124.205 24.6294C126.143 25.2005 127.85 26.6136 127.85 29.2769C127.85 31.8864 126.466 33.5443 124.459 34.5771C123.236 35.2021 121.714 35.4195 120.168 35.4195C118.991 35.4195 115.831 35.2566 114.078 35.3111C113.893 35.2292 114.239 34.2508 114.4 34.0879C114.816 34.0605 115.139 34.0334 115.577 33.8703C116.2 33.6803 116.269 33.4627 116.361 32.3485C116.408 31.3972 116.408 28.0267 116.408 25.6352C116.408 22.3466 116.431 20.1179 116.408 19.0309C116.385 18.1885 116.131 17.9164 115.623 17.7532C115.231 17.672 114.585 17.563 114.054 17.4817C113.939 17.3456 114.331 16.4214 114.47 16.313ZM101.159 33.2182C101.713 33.7342 102.797 33.9516 103.766 33.9516C105.011 33.9516 106.257 33.6803 107.457 32.4024C108.679 31.0983 109.533 29.087 109.533 25.8799C109.533 22.8084 108.541 20.3079 106.511 18.8406C105.357 17.9977 103.881 17.6449 102.174 17.6449C101.666 17.6449 101.182 17.672 100.882 17.8348C100.813 17.8893 100.651 18.1338 100.651 18.2695C100.605 18.8132 100.605 22.9987 100.605 25.4449C100.605 27.9725 100.605 31.5059 100.651 31.9135C100.651 32.3214 100.813 32.9464 101.159 33.2182H101.159ZM95.9218 16.3127C96.3602 16.3127 98.0442 16.3943 98.8516 16.3943C100.305 16.3943 101.343 16.313 104.088 16.313C106.395 16.313 108.333 17.0467 109.717 18.4327C111.401 20.145 112.278 22.5097 112.278 25.3905C112.278 29.4946 110.686 31.8593 109.094 33.2182C107.503 34.6042 105.427 35.4195 102.474 35.4195C100.905 35.4195 98.2059 35.3653 95.968 35.3379H95.945C95.8298 35.0934 96.1295 34.1421 96.314 34.115C96.914 34.0334 97.0755 34.0061 97.3755 33.8706C97.8597 33.6529 97.9522 33.354 98.0214 32.3485C98.0904 30.473 98.0674 28.2173 98.0674 25.6623C98.0674 23.8416 98.0904 20.2808 98.0442 19.1393C97.9752 18.1883 97.6292 17.9435 96.937 17.7803C96.591 17.6991 96.1295 17.5901 95.4838 17.5088C95.3913 17.3182 95.8065 16.4759 95.9218 16.313V16.3127Z" fill="#8E714E"/>
<path fill-rule="evenodd" clip-rule="evenodd" d="M68.0079 34.2779C67.4312 34.1963 67.016 34.0879 66.5085 33.8161C66.4393 33.7616 66.3238 33.49 66.3238 33.3811C66.2778 32.4298 66.2778 29.7119 66.2778 27.8912C66.2778 26.4233 66.0703 25.146 65.5396 24.2492C64.9166 23.216 64.0171 22.6184 62.8634 22.6184C61.8485 22.6184 60.4873 23.4336 59.3568 24.5752C59.3338 24.6023 59.1493 24.7929 59.1723 24.4936C59.1723 24.1947 59.2186 23.5968 59.2416 23.1889C59.2648 22.8084 59.0801 22.6184 59.0801 22.6184C58.3419 23.0531 56.2657 23.6239 55.5042 23.7052C54.9508 23.8416 54.8123 24.4665 55.3892 24.6839H55.4122C56.0347 24.9012 56.4502 25.146 56.7729 25.3907C57.0037 25.6081 56.9807 25.907 56.9807 26.1518C57.0037 28.1899 57.0037 31.3156 56.9347 33.0279C56.9117 33.7074 56.7502 33.9519 56.3347 34.0605L56.3809 34.0334C56.058 34.115 55.8042 34.1963 55.412 34.2508C55.2735 34.414 55.2735 35.2837 55.412 35.4739C55.6657 35.4739 57.0037 35.3924 58.1114 35.3924C59.6338 35.3924 60.4183 35.4739 60.8103 35.4739C60.9718 35.2566 61.018 34.4411 60.9258 34.2508C60.4873 34.2237 60.1643 34.1695 59.8645 34.0605C59.4493 33.9516 59.3338 33.7074 59.3106 33.1366C59.2648 31.6958 59.2648 28.652 59.2648 26.5865C59.2648 26.0157 59.4031 25.7439 59.5413 25.5807C60.072 25.0373 60.9258 24.6568 61.687 24.6568C62.4252 24.6568 62.9094 24.9286 63.2787 25.2821C63.7861 25.771 63.9476 26.4778 64.0169 26.9941C64.1321 28.1628 64.0861 30.473 64.0861 32.4843C64.0861 33.5713 64.0169 33.8432 63.6711 33.9789C63.5094 34.0605 63.0942 34.1695 62.6097 34.2234C62.4482 34.414 62.4944 35.2566 62.6097 35.4468C63.2787 35.4468 64.0631 35.3653 65.2166 35.3653C66.6468 35.3653 67.5697 35.4468 67.9389 35.4468C68.0539 35.2837 68.1002 34.4955 68.0079 34.2779V34.2779ZM74.3982 23.896C73.1757 23.896 72.4143 25.0102 72.4143 26.7494C72.4143 28.5162 73.0832 30.5546 74.9749 30.5546C75.2979 30.5546 75.8979 30.3914 76.1743 30.0109C76.6128 29.522 76.9128 28.5433 76.9128 27.5104C76.9128 25.2547 75.9669 23.8957 74.3982 23.8957V23.896ZM74.2367 35.9086C73.7755 35.9086 73.4522 36.0718 73.2447 36.2079C72.2758 36.9412 71.8375 37.6481 71.8375 38.491C71.8375 39.2788 72.0913 39.9038 72.645 40.4475C73.314 41.127 74.2367 41.4533 75.4131 41.4533C77.7663 41.4533 78.8045 39.9583 78.8045 38.491C78.8045 37.4578 78.366 36.7784 77.4665 36.3981C76.8206 36.0718 75.6441 35.9086 74.2367 35.9086V35.9086ZM74.3982 42.9754C72.991 42.9754 71.9758 42.6219 71.0993 41.8338C70.2456 41.0728 69.8766 39.9312 69.8766 39.1431C69.8766 38.9257 69.9229 38.3275 70.3381 37.7842C70.5916 37.4578 71.1456 36.8329 72.4605 35.7729C72.5065 35.7458 72.5295 35.7187 72.5295 35.6639C72.5295 35.6097 72.4833 35.5552 72.4373 35.5284C71.3531 35.0392 71.0301 34.2508 70.9376 33.8161V33.7616C70.9148 33.5984 70.8686 33.4356 71.0763 33.2724C71.2378 33.1366 71.4686 32.9735 71.722 32.7835C72.1143 32.5114 72.5295 32.2124 72.7832 31.9677C72.8295 31.9135 72.8295 31.8593 72.8295 31.8048C72.8295 31.7503 72.7832 31.6958 72.737 31.669C71.1226 31.0438 70.3151 29.6304 70.3151 27.5104C70.3151 26.1244 70.8456 24.8741 71.7913 24.086C72.4373 23.4881 74.0522 22.7542 75.1134 22.7542H75.1826C76.2668 22.7813 76.8666 23.0531 77.72 23.4065C78.1815 23.5968 78.62 23.6781 79.22 23.6781C80.1194 23.6781 80.5117 23.3521 80.8344 22.9718C80.8576 23.026 80.9039 23.1621 80.9269 23.5152C80.9499 23.8686 80.8576 24.3849 80.6269 24.7655C80.4424 25.0644 80.0272 25.2821 79.6119 25.2821H79.4965C79.0812 25.2276 78.8965 25.1731 78.8965 25.1731L78.8045 25.2276C78.7815 25.2821 78.8045 25.3362 78.8275 25.4178L78.8507 25.4723C78.8967 25.7168 78.989 26.4504 78.989 26.641C78.989 28.8696 78.2278 29.8477 77.4203 30.5817C76.6358 31.2611 75.7364 31.6958 74.7212 31.8048C74.6982 31.8048 74.6062 31.8048 74.3982 31.8319C74.2829 31.8319 74.1214 31.8593 74.0982 31.8593H74.0752C73.8907 31.9135 73.4295 32.1853 73.4295 32.6471C73.4295 33.0547 73.637 33.5442 74.6289 33.6258C74.8364 33.6529 75.0439 33.6529 75.2749 33.6803C76.5898 33.7887 78.2278 33.9248 78.989 34.2237C80.0502 34.6855 80.7192 35.8 80.7192 37.1318C80.7192 39.1434 79.4967 41.0186 77.4665 42.1869C76.4746 42.7035 75.4824 42.9754 74.3982 42.9754V42.9754ZM87.5476 24.0318C87.0634 24.0318 86.6249 24.1673 86.3019 24.4391C85.4024 25.0915 84.941 26.3962 84.941 28.2985C84.941 31.8593 86.4634 34.3598 88.6321 34.3598C89.278 34.3598 89.7855 34.1421 90.2237 33.7074C90.8927 33.0547 91.2389 31.7503 91.2389 29.9293C91.2389 26.3962 89.7393 24.0315 87.5479 24.0315L87.5476 24.0318ZM87.9631 35.6642C84.0413 35.6642 82.6341 32.2669 82.6341 29.087C82.6341 26.8583 83.3953 25.146 84.9177 23.9228C86.0022 23.1347 87.2941 22.7 88.4476 22.7C91.4464 22.7 93.5458 25.2276 93.5458 28.8696C93.5458 31.3427 92.7154 33.2995 91.1234 34.4955C90.3622 35.0934 89.0473 35.6642 87.9628 35.6642H87.9631V35.6642ZM46.8534 24.0315C46.3689 24.0315 45.9306 24.1673 45.6074 24.4391C44.7079 25.0915 44.2465 26.3962 44.2465 28.2985C44.2465 31.8593 45.7689 34.3598 47.9376 34.3598C48.5835 34.3598 49.091 34.1421 49.5295 33.7074C50.1982 33.0547 50.5444 31.7503 50.5444 29.9293C50.5444 26.3962 49.068 24.0315 46.8534 24.0315ZM47.2686 35.6642C43.3468 35.6642 41.9396 32.2669 41.9396 29.087C41.9396 26.8583 42.7008 25.146 44.2232 23.9228C45.3077 23.1347 46.5996 22.7 47.7531 22.7C50.7522 22.7 52.8514 25.2276 52.8514 28.8696C52.8514 31.3427 52.0209 33.2995 50.429 34.4955C49.6907 35.0934 48.3758 35.6642 47.2686 35.6642ZM20.9002 35.3924C20.854 35.3111 20.8077 35.0663 20.831 34.7674C20.831 34.5497 20.8772 34.414 20.9002 34.3598C21.3847 34.2779 21.6384 34.1963 21.9152 34.115C22.3767 33.9789 22.5612 33.6803 22.5842 33.0008C22.6536 31.3701 22.6536 28.2714 22.6304 26.1244V26.0699C22.6304 25.8254 22.6304 25.5262 22.3767 25.3089C22.0074 25.0373 21.5692 24.7929 20.9925 24.602C20.785 24.521 20.6465 24.3849 20.6695 24.2221C20.6695 24.0589 20.808 23.8686 21.108 23.8142C21.8692 23.7326 23.8528 23.1621 24.6373 22.7542C24.6836 22.8084 24.7528 22.9718 24.7528 23.1892L24.7298 23.4878C24.7066 23.7871 24.6836 24.1405 24.6836 24.4936C24.6836 24.6023 24.7761 24.6839 24.8681 24.6839C24.9143 24.6839 24.9605 24.6568 25.0065 24.6294C26.483 23.2705 27.8209 22.7813 28.5129 22.7813C29.6436 22.7813 30.5203 23.4065 31.1893 24.711C31.2353 24.7929 31.2815 24.82 31.3508 24.82C31.3968 24.82 31.4658 24.7929 31.489 24.7384C32.8502 23.5152 34.2114 22.7813 35.1109 22.7813C37.2563 22.7813 38.5252 24.6568 38.5252 27.8367C38.5252 28.7335 38.5252 29.9022 38.5022 30.9625C38.5022 31.9135 38.4792 32.7832 38.4792 33.4085C38.4792 33.5439 38.6405 33.9789 38.8942 34.0605C39.2172 34.2508 39.6557 34.3324 40.2324 34.4411H40.2554C40.3016 34.6313 40.2094 35.3379 40.1171 35.4739C39.9787 35.4739 39.7709 35.4739 39.5404 35.4468C38.9564 35.4109 38.3718 35.3928 37.787 35.3924C36.3568 35.3924 35.6186 35.4194 34.9031 35.4739C34.8574 35.2566 34.8341 34.6042 34.9031 34.4411C35.3186 34.3598 35.5261 34.2779 35.7801 34.1966C36.2416 34.0334 36.3568 33.7887 36.3801 33.0821C36.3801 32.5658 36.4721 28.1628 36.3336 27.1028C36.1953 26.0157 35.5031 24.7384 33.9804 24.7384C33.4037 24.7384 32.5042 25.0102 31.6275 25.7981C31.5815 25.8525 31.535 25.9883 31.535 26.0699V26.0973C31.6275 26.6678 31.6275 27.3204 31.6275 28.3259V30.0925C31.6275 31.3156 31.6043 32.4572 31.6275 33.3266C31.6275 33.9248 31.9275 34.0605 32.1812 34.1695C32.3197 34.1963 32.4117 34.2237 32.5272 34.2508C32.7347 34.3053 32.9425 34.3598 33.2654 34.4411C33.3117 34.55 33.3117 34.9032 33.2424 35.2021C33.2192 35.3653 33.1729 35.4465 33.1499 35.4739C32.3657 35.4468 31.5583 35.4194 30.3818 35.4194C30.0358 35.4194 29.4359 35.4468 28.9284 35.4468C28.5129 35.4468 28.1209 35.4739 27.8904 35.4739C27.8672 35.4194 27.8209 35.2295 27.8209 34.9302C27.8209 34.6858 27.8672 34.4955 27.9134 34.4411C28.0287 34.414 28.1209 34.3869 28.2364 34.3869C28.5129 34.3324 28.7439 34.2779 28.9744 34.2237C29.3669 34.0879 29.5051 33.8432 29.5281 33.2453C29.5974 31.8864 29.6666 27.9999 29.5051 27.0212C29.2284 25.4449 28.4671 24.6568 27.2442 24.6568C26.5292 24.6568 25.6293 25.0644 24.8913 25.7171C24.7758 25.8254 24.6836 26.097 24.6836 26.3417V27.9454C24.6836 29.9022 24.6836 32.3485 24.7066 33.4085C24.7298 33.7342 24.8218 34.115 25.3525 34.2508C25.468 34.2779 25.6525 34.3324 25.8833 34.3598L26.2982 34.4411C26.3447 34.6042 26.3215 35.2566 26.2292 35.4739C25.9985 35.4739 25.7218 35.4468 25.3985 35.4468C24.9143 35.4194 24.2913 35.3924 23.5994 35.3924C22.7919 35.3924 22.2152 35.4194 21.7537 35.4468C21.4307 35.3924 21.177 35.3924 20.9002 35.3924V35.3924Z" fill="#442D22"/>
<path fill-rule="evenodd" clip-rule="evenodd" d="M8.76566 41.9152L7.81995 41.5344C7.81995 41.5344 7.93545 35.8543 6.20502 35.4467C5.05182 33.8701 6.39001 -31.4133 10.5423 35.229C10.5423 35.229 9.1119 36.0714 8.85816 37.5121C8.58117 38.9256 8.76566 41.9152 8.76566 41.9152V41.9152Z" fill="white"/>
<path fill-rule="evenodd" clip-rule="evenodd" d="M8.76566 41.9152L7.81995 41.5344C7.81995 41.5344 7.93545 35.8543 6.20502 35.4467C5.05182 33.8701 6.39001 -31.4133 10.5423 35.229C10.5423 35.229 9.1119 36.0714 8.85816 37.5121C8.58117 38.9256 8.76566 41.9152 8.76566 41.9152V41.9152Z" fill="#A6A385"/>
<path fill-rule="evenodd" clip-rule="evenodd" d="M9.27326 36.4251C9.27326 36.4251 17.5554 30.0107 15.6172 16.6657C13.7488 6.96329 9.34251 3.78335 8.85803 2.56021C8.32755 1.69049 7.81982 0.168701 7.81982 0.168701L8.16606 27.1568C8.16606 27.1842 7.45084 35.4193 9.27351 36.4254" fill="white"/>
<path fill-rule="evenodd" clip-rule="evenodd" d="M9.27326 36.4251C9.27326 36.4251 17.5554 30.0107 15.6172 16.6657C13.7488 6.96329 9.34251 3.78335 8.85803 2.56021C8.32755 1.69049 7.81982 0.168701 7.81982 0.168701L8.16606 27.1568C8.16606 27.1842 7.45084 35.4193 9.27351 36.4254" fill="#499D4A"/>
<path fill-rule="evenodd" clip-rule="evenodd" d="M7.33563 36.7783C7.33563 36.7783 -0.439034 30.5271 0.0224457 19.52C0.460677 8.51255 5.95119 3.10398 7.0124 2.12558C7.70462 1.25586 7.72761 0.929534 7.77386 0.0598145C8.25834 1.28296 8.1661 18.3513 8.23509 20.3623C8.44258 28.1082 7.86611 35.311 7.33563 36.7783Z" fill="white"/>
<path fill-rule="evenodd" clip-rule="evenodd" d="M7.33563 36.7783C7.33563 36.7783 -0.439034 30.5271 0.0224457 19.52C0.460677 8.51255 5.95119 3.10398 7.0124 2.12558C7.70462 1.25586 7.72761 0.929534 7.77386 0.0598145C8.25834 1.28296 8.1661 18.3513 8.23509 20.3623C8.44258 28.1082 7.86611 35.311 7.33563 36.7783Z" fill="#58AA50"/>
</svg>
