<svg width="176" height="50" viewBox="0 0 176 50" fill="none" xmlns="http://www.w3.org/2000/svg">
<g clip-path="url(#clip0)">
<path fill-rule="evenodd" clip-rule="evenodd" d="M163.262 20.7066C163.104 20.7381 162.946 21.0857 162.946 21.2751C162.914 22.5395 162.883 25.8895 162.883 28.1648C162.883 28.2282 162.977 28.3546 163.072 28.3546C163.546 28.3861 164.684 28.4176 165.664 28.4176C167.022 28.4176 167.813 28.2282 168.255 28.0388C169.393 27.4696 169.93 26.2371 169.93 24.8778C169.93 21.8128 167.781 20.6433 164.589 20.6433C164.368 20.6118 163.736 20.6118 163.262 20.7066V20.7066ZM171.416 34.8333C171.416 31.7046 169.108 29.9662 164.937 29.9662C164.747 29.9662 163.42 29.9347 163.104 29.9977C163.009 30.0296 162.883 30.0929 162.883 30.1878C162.883 32.4313 162.851 36.0029 162.946 37.3933C163.009 37.9936 163.452 38.847 163.989 39.0998C164.557 39.4159 165.853 39.4789 166.738 39.4789C169.235 39.4789 171.416 38.0885 171.416 34.8333V34.8333ZM156.815 18.9686C157.131 18.9686 158.079 19.0631 160.512 19.0631C162.819 19.0631 164.652 19.0001 166.896 19.0001C169.645 19.0001 173.438 19.9796 173.438 24.0881C173.438 26.1107 172.016 27.7227 170.151 28.5128C170.057 28.5443 170.057 28.6073 170.151 28.6388C172.806 29.3029 175.145 30.946 175.145 34.0429C175.145 37.0772 173.249 39.0049 170.499 40.2059C168.824 40.9326 166.738 41.1854 164.621 41.1854C163.009 41.1854 158.679 40.996 156.278 41.0594C156.025 40.9642 156.499 39.8265 156.72 39.6371C157.289 39.6052 157.731 39.5737 158.332 39.384C159.185 39.1631 159.28 38.91 159.406 37.6145C159.469 36.5083 159.469 32.5892 159.469 29.8083C159.469 25.9844 159.501 23.3929 159.469 22.1289C159.438 21.1494 159.09 20.833 158.395 20.6433C157.857 20.5487 156.973 20.422 156.246 20.3275C156.088 20.1693 156.625 19.0946 156.815 18.9686ZM138.579 38.6258C139.338 39.2258 140.824 39.4785 142.151 39.4785C143.857 39.4785 145.564 39.1631 147.207 37.6772C148.882 36.1607 150.052 33.822 150.052 30.0929C150.052 26.5213 148.693 23.6138 145.912 21.9076C144.331 20.9275 142.309 20.5172 139.97 20.5172C139.275 20.5172 138.611 20.5487 138.201 20.7381C138.105 20.8015 137.884 21.0857 137.884 21.2436C137.821 21.8758 137.821 26.7426 137.821 29.5871C137.821 32.5261 137.821 36.6347 137.884 37.1087C137.884 37.583 138.105 38.3097 138.58 38.6258H138.579ZM131.405 18.9683C132.006 18.9683 134.313 19.0631 135.419 19.0631C137.41 19.0631 138.832 18.9686 142.593 18.9686C145.753 18.9686 148.408 19.8217 150.304 21.4333C152.611 23.4244 153.813 26.1741 153.813 29.5237C153.813 34.296 151.632 37.0457 149.451 38.6258C147.271 40.2374 144.426 41.1854 140.381 41.1854C138.232 41.1854 134.534 41.1224 131.469 41.0905H131.437C131.279 40.8063 131.69 39.7001 131.943 39.6686C132.765 39.5737 132.986 39.5419 133.397 39.3844C134.06 39.1313 134.187 38.7837 134.282 37.6145C134.376 35.4337 134.345 32.8107 134.345 29.8398C134.345 27.7227 134.376 23.5823 134.313 22.2549C134.218 21.1491 133.744 20.8645 132.796 20.6748C132.322 20.5802 131.69 20.4535 130.805 20.359C130.679 20.1374 131.247 19.158 131.405 18.9686V18.9683Z" fill="#8E714E"/>
<path fill-rule="evenodd" clip-rule="evenodd" d="M93.1657 39.8578C92.3756 39.763 91.8068 39.6369 91.1116 39.3208C91.0167 39.2575 90.8585 38.9417 90.8585 38.815C90.7955 37.7089 90.7955 34.5486 90.7955 32.4315C90.7955 30.7246 90.5112 29.2393 89.7842 28.1965C88.9307 26.9952 87.6985 26.3003 86.1181 26.3003C84.7277 26.3003 82.8629 27.2482 81.3143 28.5756C81.2828 28.6071 81.0301 28.8287 81.0616 28.4808C81.0616 28.1332 81.1249 27.438 81.1564 26.9637C81.1883 26.5212 80.9352 26.3003 80.9352 26.3003C79.9239 26.8058 77.0797 27.4695 76.0366 27.564C75.2783 27.7226 75.0886 28.4493 75.879 28.702H75.9105C76.7633 28.9547 77.3325 29.2393 77.7746 29.5239C78.0907 29.7767 78.0592 30.1243 78.0592 30.4089C78.0907 32.7787 78.0907 36.4133 77.9962 38.4044C77.9646 39.1945 77.7434 39.4787 77.1742 39.6051L77.2376 39.5736C76.7951 39.6684 76.4475 39.763 75.9102 39.8263C75.7205 40.016 75.7205 41.0273 75.9102 41.2486C76.2578 41.2486 78.0907 41.1537 79.6081 41.1537C81.6938 41.1537 82.7684 41.2486 83.3054 41.2486C83.5266 40.9958 83.59 40.0476 83.4636 39.8263C82.8629 39.7948 82.4205 39.7318 82.0098 39.6051C81.441 39.4784 81.2828 39.1945 81.2509 38.5308C81.1883 36.8554 81.1883 33.316 81.1883 30.9143C81.1883 30.2506 81.3777 29.9345 81.567 29.7448C82.2941 29.113 83.4636 28.6705 84.5064 28.6705C85.5177 28.6705 86.1811 28.9866 86.6869 29.3976C87.3821 29.966 87.6033 30.788 87.6982 31.3883C87.8561 32.7472 87.7931 35.4335 87.7931 37.7722C87.7931 39.0363 87.6982 39.3523 87.2246 39.5102C87.003 39.6051 86.4342 39.7318 85.7705 39.7945C85.5492 40.016 85.6126 40.9958 85.7705 41.2171C86.6869 41.2171 87.7616 41.1222 89.3417 41.1222C91.3009 41.1222 92.5653 41.2171 93.0711 41.2171C93.2287 41.0273 93.292 40.1109 93.1657 39.8578V39.8578ZM101.92 27.7859C100.245 27.7859 99.202 29.0815 99.202 31.1037C99.202 33.1582 100.118 35.5284 102.71 35.5284C103.152 35.5284 103.974 35.3387 104.353 34.8962C104.954 34.3277 105.365 33.1897 105.365 31.9886C105.365 29.3657 104.069 27.7856 101.92 27.7856V27.7859ZM101.699 41.7541C101.067 41.7541 100.624 41.9438 100.34 42.102C99.0122 42.9547 98.4119 43.7767 98.4119 44.7568C98.4119 45.6729 98.7595 46.3996 99.5181 47.0318C100.435 47.8219 101.699 48.2013 103.31 48.2013C106.534 48.2013 107.956 46.463 107.956 44.7568C107.956 43.5554 107.355 42.7654 106.123 42.3232C105.238 41.9438 103.627 41.7541 101.699 41.7541V41.7541ZM101.92 49.9712C99.992 49.9712 98.6013 49.5602 97.4006 48.6438C96.2311 47.7589 95.7256 46.4315 95.7256 45.515C95.7256 45.2623 95.789 44.5667 96.3578 43.9349C96.7051 43.5554 97.464 42.8287 99.2653 41.5962C99.3283 41.5647 99.3598 41.5332 99.3598 41.4695C99.3598 41.4065 99.2965 41.3431 99.2335 41.3119C97.7482 40.7431 97.3057 39.8263 97.179 39.3208V39.2575C97.1479 39.0678 97.0845 38.8784 97.3691 38.6887C97.5903 38.5308 97.9064 38.341 98.2537 38.1202C98.791 37.8037 99.3599 37.4561 99.7075 37.1715C99.7708 37.1085 99.7708 37.0455 99.7708 36.9821C99.7708 36.9188 99.7075 36.8554 99.6441 36.8243C97.4325 36.0972 96.3263 34.4537 96.3263 31.9886C96.3263 30.377 97.053 28.9232 98.3485 28.0068C99.2335 27.3116 101.446 26.4582 102.9 26.4582H102.994C104.48 26.4897 105.301 26.8058 106.47 27.2167C107.103 27.438 107.703 27.5325 108.525 27.5325C109.757 27.5325 110.295 27.1534 110.737 26.7113C110.769 26.7743 110.832 26.9325 110.864 27.3431C110.895 27.7541 110.769 28.3544 110.453 28.7969C110.2 29.1445 109.631 29.3976 109.062 29.3976H108.904C108.335 29.3342 108.082 29.2708 108.082 29.2708L107.956 29.3342C107.925 29.3976 107.956 29.4606 107.988 29.5554L108.019 29.6188C108.082 29.903 108.209 30.7561 108.209 30.9777C108.209 33.5691 107.166 34.7065 106.06 35.5599C104.985 36.35 103.753 36.8554 102.362 36.9821C102.331 36.9821 102.205 36.9821 101.92 37.0137C101.762 37.0137 101.541 37.0455 101.509 37.0455H101.477C101.225 37.1085 100.593 37.4246 100.593 37.9616C100.593 38.4356 100.877 39.0047 102.236 39.0996C102.52 39.1311 102.804 39.1311 103.121 39.163C104.922 39.289 107.166 39.4472 108.209 39.7948C109.663 40.3318 110.579 41.6277 110.579 43.1763C110.579 45.5154 108.904 47.6958 106.123 49.0544C104.764 49.6551 103.405 49.9712 101.92 49.9712V49.9712ZM119.933 27.9438C119.27 27.9438 118.669 28.1013 118.227 28.4174C116.995 29.176 116.363 30.6931 116.363 32.9051C116.363 37.0455 118.448 39.953 121.419 39.953C122.304 39.953 122.999 39.7 123.6 39.1945C124.516 38.4356 124.99 36.9188 124.99 34.8013C124.99 30.6931 122.936 27.9434 119.934 27.9434L119.933 27.9438ZM120.503 41.4698C115.13 41.4698 113.202 37.5195 113.202 33.8219C113.202 31.2304 114.245 29.2393 116.331 27.8171C117.816 26.9006 119.586 26.3952 121.166 26.3952C125.275 26.3952 128.151 29.3342 128.151 33.5691C128.151 36.4448 127.013 38.7202 124.832 40.1109C123.789 40.8061 121.988 41.4698 120.502 41.4698H120.503V41.4698ZM64.1855 27.9434C63.5218 27.9434 62.9215 28.1013 62.4787 28.4174C61.2465 29.176 60.6143 30.6931 60.6143 32.9051C60.6143 37.0455 62.6999 39.953 65.6708 39.953C66.5557 39.953 67.2509 39.7 67.8516 39.1945C68.7677 38.4356 69.242 36.9188 69.242 34.8013C69.242 30.6931 67.2194 27.9434 64.1855 27.9434ZM64.7544 41.4698C59.3818 41.4698 57.454 37.5195 57.454 33.8219C57.454 31.2304 58.4968 29.2393 60.5825 27.8171C62.0681 26.9006 63.8379 26.3952 65.4181 26.3952C69.5266 26.3952 72.4023 29.3342 72.4023 33.5691C72.4023 36.4448 71.2646 38.7202 69.0838 40.1109C68.0725 40.8061 66.2712 41.4698 64.7544 41.4698ZM28.6318 41.1537C28.5684 41.0592 28.5051 40.7746 28.5369 40.427C28.5369 40.1739 28.6003 40.016 28.6318 39.953C29.2955 39.8578 29.6431 39.763 30.0222 39.6684C30.6544 39.5102 30.9071 39.163 30.9386 38.3729C31.0338 36.4767 31.0338 32.8736 31.002 30.377V30.3136C31.002 30.0294 31.002 29.6815 30.6544 29.4287C30.1485 29.113 29.5482 28.8287 28.7581 28.6068C28.4739 28.5126 28.2842 28.3544 28.3157 28.165C28.3157 27.9753 28.5054 27.7541 28.9164 27.6907C29.9592 27.5958 32.6766 26.9325 33.7513 26.4582C33.8146 26.5212 33.9095 26.7113 33.9095 26.964L33.878 27.3113C33.8461 27.6592 33.8146 28.0702 33.8146 28.4808C33.8146 28.6071 33.9414 28.702 34.0674 28.702C34.1307 28.702 34.1941 28.6705 34.2571 28.6387C36.2797 27.0585 38.1126 26.4897 39.0605 26.4897C40.6095 26.4897 41.8105 27.2167 42.727 28.7335C42.79 28.8287 42.8533 28.8602 42.9482 28.8602C43.0112 28.8602 43.1057 28.8287 43.1376 28.7654C45.0023 27.3431 46.867 26.4897 48.0992 26.4897C51.0383 26.4897 52.7766 28.6705 52.7766 32.3681C52.7766 33.4109 52.7766 34.7698 52.7451 36.0027C52.7451 37.1085 52.7136 38.1198 52.7136 38.8469C52.7136 39.0044 52.9345 39.5102 53.2821 39.6051C53.7246 39.8263 54.3253 39.9212 55.1153 40.0476H55.1468C55.2102 40.2688 55.0838 41.0904 54.9574 41.2486C54.7677 41.2486 54.4831 41.2486 54.1674 41.2171C53.3674 41.1753 52.5664 41.1542 51.7653 41.1537C49.8061 41.1537 48.7948 41.1852 47.8146 41.2486C47.752 40.9958 47.7201 40.2373 47.8146 40.0476C48.3838 39.953 48.6681 39.8578 49.016 39.7633C49.6482 39.5736 49.8061 39.289 49.8379 38.4674C49.8379 37.8671 49.964 32.7472 49.7742 31.5147C49.5848 30.2506 48.6366 28.7654 46.5506 28.7654C45.7605 28.7654 44.5283 29.0815 43.3273 29.9976C43.2643 30.0609 43.2006 30.2188 43.2006 30.3136V30.3455C43.3273 31.0089 43.3273 31.7678 43.3273 32.9369V34.991C43.3273 36.4133 43.2955 37.7407 43.3273 38.7517C43.3273 39.4472 43.7383 39.6051 44.0859 39.7318C44.2756 39.763 44.4016 39.7948 44.5598 39.8263C44.8441 39.8897 45.1287 39.953 45.5712 40.0476C45.6345 40.1743 45.6345 40.5849 45.5396 40.9325C45.5078 41.1222 45.4444 41.2167 45.4129 41.2486C44.3386 41.2171 43.2325 41.1852 41.6208 41.1852C41.1468 41.1852 40.3249 41.2171 39.6297 41.2171C39.0605 41.2171 38.5235 41.2486 38.2078 41.2486C38.1759 41.1852 38.1126 40.9643 38.1126 40.6164C38.1126 40.3321 38.1759 40.1109 38.2393 40.0476C38.3972 40.016 38.5235 39.9845 38.6818 39.9845C39.0605 39.9212 39.377 39.8578 39.6927 39.7948C40.2304 39.6369 40.4198 39.3523 40.4513 38.6571C40.5461 37.077 40.641 32.5578 40.4198 31.4198C40.0407 29.5869 38.9979 28.6705 37.3225 28.6705C36.3431 28.6705 35.1102 29.1445 34.0992 29.9034C33.941 30.0294 33.8146 30.3452 33.8146 30.6297V32.4945C33.8146 34.7698 33.8146 37.6143 33.8461 38.8469C33.878 39.2256 34.004 39.6684 34.7311 39.8263C34.8893 39.8578 35.142 39.9212 35.4581 39.953L36.0266 40.0476C36.0903 40.2373 36.0585 40.9958 35.9321 41.2486C35.616 41.2486 35.2369 41.2171 34.7941 41.2171C34.1307 41.1852 33.2773 41.1537 32.3294 41.1537C31.2232 41.1537 30.4331 41.1852 29.8009 41.2171C29.3585 41.1537 29.0109 41.1537 28.6318 41.1537V41.1537Z" fill="#442D22"/>
<path fill-rule="evenodd" clip-rule="evenodd" d="M12.0082 48.7388L10.7127 48.296C10.7127 48.296 10.8709 41.6912 8.50035 41.2172C6.92055 39.384 8.75377 -36.527 14.4421 40.9641C14.4421 40.9641 12.4825 41.9436 12.1349 43.6189C11.7555 45.2624 12.0082 48.7388 12.0082 48.7388V48.7388Z" fill="white"/>
<path fill-rule="evenodd" clip-rule="evenodd" d="M12.0082 48.7388L10.7127 48.296C10.7127 48.296 10.8709 41.6912 8.50035 41.2172C6.92055 39.384 8.75377 -36.527 14.4421 40.9641C14.4421 40.9641 12.4825 41.9436 12.1349 43.6189C11.7555 45.2624 12.0082 48.7388 12.0082 48.7388V48.7388Z" fill="#A6A385"/>
<path fill-rule="evenodd" clip-rule="evenodd" d="M12.7037 42.3549C12.7037 42.3549 24.0496 34.8963 21.3945 19.3788C18.8349 8.09697 12.7986 4.39937 12.1349 2.97711C11.4082 1.96581 10.7126 0.196289 10.7126 0.196289L11.187 31.5778C11.187 31.6096 10.2072 41.1853 12.7041 42.3552" fill="white"/>
<path fill-rule="evenodd" clip-rule="evenodd" d="M12.7037 42.3549C12.7037 42.3549 24.0496 34.8963 21.3945 19.3788C18.8349 8.09697 12.7986 4.39937 12.1349 2.97711C11.4082 1.96581 10.7126 0.196289 10.7126 0.196289L11.187 31.5778C11.187 31.6096 10.2072 41.1853 12.7041 42.3552" fill="#499D4A"/>
<path fill-rule="evenodd" clip-rule="evenodd" d="M10.0492 42.7655C10.0492 42.7655 -0.60146 35.4966 0.030732 22.6977C0.631075 9.89835 8.15265 3.60931 9.60642 2.47163C10.5547 1.46033 10.5862 1.08088 10.6496 0.0695801C11.3133 1.49184 11.1869 21.3388 11.2814 23.6771C11.5657 32.684 10.7759 41.0593 10.0492 42.7655Z" fill="white"/>
<path fill-rule="evenodd" clip-rule="evenodd" d="M10.0492 42.7655C10.0492 42.7655 -0.60146 35.4966 0.030732 22.6977C0.631075 9.89835 8.15265 3.60931 9.60642 2.47163C10.5547 1.46033 10.5862 1.08088 10.6496 0.0695801C11.3133 1.49184 11.1869 21.3388 11.2814 23.6771C11.5657 32.684 10.7759 41.0593 10.0492 42.7655Z" fill="#58AA50"/>
</g>
<defs>
<clipPath id="clip0">
<rect width="175.35" height="50" fill="white"/>
</clipPath>
</defs>
</svg>
