<svg width="82" height="50" viewBox="0 0 82 50" fill="none" xmlns="http://www.w3.org/2000/svg">
<g clip-path="url(#clip0)">
<path d="M40.3046 49.8559C40.0287 49.8559 39.771 49.7823 39.5317 49.6535L37.0841 48.1997C36.7159 47.9971 36.9 47.9236 37.0105 47.8868C37.5073 47.7212 37.5994 47.6842 38.1147 47.39C38.1699 47.353 38.2436 47.3715 38.2987 47.4083L40.176 48.5309C40.2495 48.5677 40.3416 48.5677 40.3967 48.5309L47.7398 44.2796C47.8134 44.2428 47.8503 44.1691 47.8503 44.0772V35.5932C47.8503 35.501 47.8134 35.4275 47.7398 35.3906L40.3967 31.1578C40.3231 31.1209 40.2311 31.1209 40.176 31.1578L32.8328 35.3906C32.7592 35.4274 32.7223 35.5194 32.7223 35.593V44.0771C32.7223 44.1508 32.7592 44.2427 32.8328 44.2796L34.8389 45.439C35.9247 45.9911 36.6056 45.347 36.6056 44.7029V36.3291C36.6056 36.2188 36.6976 36.1083 36.8264 36.1083H37.765C37.8755 36.1083 37.9858 36.2003 37.9858 36.3291V44.7029C37.9858 46.1567 37.1944 47.0033 35.8142 47.0033C35.3909 47.0033 35.0597 47.0033 34.121 46.5432L32.1887 45.439C31.7102 45.1631 31.4158 44.6476 31.4158 44.0955V35.6115C31.4158 35.0594 31.7102 34.5439 32.1887 34.268L39.5317 30.0167C39.9919 29.7591 40.6177 29.7591 41.0777 30.0167L48.4207 34.268C48.8992 34.5439 49.1938 35.0594 49.1938 35.6115V44.0955C49.1938 44.6476 48.8992 45.1631 48.4207 45.439L41.0777 49.6903C40.8384 49.8008 40.5624 49.8559 40.3048 49.8559H40.3046ZM42.5683 44.022C39.3478 44.022 38.6852 42.5497 38.6852 41.2982C38.6852 41.1877 38.7772 41.0774 38.9061 41.0774H39.8631C39.9734 41.0774 40.0655 41.151 40.0655 41.2615C40.2127 42.2368 40.636 42.7153 42.5868 42.7153C44.1326 42.7153 44.7954 42.3656 44.7954 41.5374C44.7954 41.0589 44.6112 40.7094 42.2003 40.4701C40.1943 40.2675 38.9428 39.826 38.9428 38.2248C38.9428 36.7341 40.1944 35.8506 42.2924 35.8506C44.6479 35.8506 45.8075 36.6605 45.9548 38.4271C45.9548 38.4825 45.9363 38.5376 45.8995 38.5928C45.8626 38.6296 45.8075 38.6664 45.7522 38.6664H44.7952C44.7032 38.6664 44.6112 38.5928 44.5928 38.5008C44.372 37.4887 43.8014 37.1573 42.2924 37.1573C40.5992 37.1573 40.3967 37.7463 40.3967 38.1879C40.3967 38.7217 40.636 38.8873 42.918 39.1817C45.1817 39.4763 46.2492 39.8995 46.2492 41.4822C46.2307 43.1017 44.9057 44.022 42.5683 44.022Z" fill="#539E43"/>
<path d="M17.521 16.6739C17.521 16.3427 17.3369 16.0297 17.0424 15.8641L9.23926 11.3736C9.11028 11.2999 8.96315 11.2631 8.81602 11.2446H8.74229C8.59516 11.2446 8.44786 11.2999 8.31904 11.3736L0.515857 15.8641C0.221271 16.0297 0.0373535 16.3426 0.0373535 16.6739L0.0558249 28.7467C0.0558249 28.9123 0.147863 29.0779 0.294997 29.1516C0.44229 29.2437 0.626207 29.2437 0.755188 29.1516L5.39293 26.5015C5.68735 26.3359 5.87143 26.023 5.87143 25.6918V20.0418C5.87143 19.7106 6.05535 19.3977 6.34993 19.2321L8.31904 18.091C8.46633 17.9989 8.63194 17.962 8.79754 17.962C8.96315 17.962 9.12875 17.9989 9.25774 18.091L11.2268 19.2321C11.5214 19.3977 11.7053 19.7104 11.7053 20.0418V25.6918C11.7053 26.023 11.8894 26.3359 12.1839 26.5015L16.8216 29.1516C16.9689 29.2437 17.1528 29.2437 17.3001 29.1516C17.4474 29.0779 17.5394 28.9123 17.5394 28.7467L17.521 16.6739Z" fill="#333333"/>
<path d="M55.0278 0.0552946C54.8806 -0.0184315 54.6965 -0.0184315 54.5676 0.0552946C54.4204 0.147333 54.3284 0.294467 54.3284 0.460072V12.4227C54.3284 12.533 54.2733 12.6434 54.1628 12.7171C54.0524 12.7722 53.9419 12.7722 53.8316 12.7171L51.8808 11.5945C51.7378 11.513 51.576 11.4702 51.4114 11.4702C51.2469 11.4702 51.0851 11.513 50.9421 11.5945L43.1389 16.1034C42.8445 16.269 42.6604 16.5819 42.6604 16.9131V25.9125C42.6604 26.2437 42.8445 26.5567 43.1389 26.7223L50.9421 31.2313C51.0851 31.3127 51.2469 31.3555 51.4114 31.3555C51.576 31.3555 51.7378 31.3127 51.8808 31.2313L59.684 26.7223C59.9784 26.5567 60.1625 26.2438 60.1625 25.9125V3.47838C60.1625 3.1287 59.9784 2.81596 59.684 2.6502L55.0279 0.0552946H55.0278ZM54.3101 22.9496C54.3101 23.0416 54.2733 23.1152 54.1996 23.1519L51.5311 24.6978C51.4938 24.716 51.4529 24.7254 51.4114 24.7254C51.37 24.7254 51.329 24.716 51.2918 24.6978L48.6233 23.1519C48.5496 23.1152 48.5128 23.0231 48.5128 22.9496V19.8577C48.5128 19.7656 48.5496 19.6921 48.6233 19.6553L51.2918 18.1093C51.329 18.0911 51.37 18.0816 51.4114 18.0816C51.4529 18.0816 51.4938 18.0911 51.5311 18.1093L54.1996 19.6553C54.2733 19.6919 54.3101 19.7841 54.3101 19.8577V22.9496Z" fill="#333333"/>
<path d="M80.9955 19.7841C81.2901 19.6185 81.4557 19.3056 81.4557 18.9742V16.7842C81.4557 16.453 81.2716 16.1401 80.9955 15.9745L73.2476 11.4841C73.1046 11.4027 72.9428 11.3599 72.7783 11.3599C72.6138 11.3599 72.452 11.4027 72.309 11.4841L64.5058 15.9928C64.2113 16.1584 64.0273 16.4713 64.0273 16.8027V25.8021C64.0273 26.1333 64.2113 26.4462 64.5058 26.6118L72.2538 31.0287C72.5484 31.1943 72.8979 31.1943 73.174 31.0287L77.8668 28.4156C78.0141 28.3419 78.1062 28.1763 78.1062 28.0107C78.1062 27.8451 78.0141 27.6795 77.8668 27.6057L70.0269 23.0968C69.8797 23.0049 69.7877 22.8576 69.7877 22.692V19.8763C69.7877 19.7107 69.8797 19.5451 70.0269 19.4713L72.4746 18.0726C72.5463 18.0275 72.6292 18.0036 72.7139 18.0036C72.7985 18.0036 72.8815 18.0275 72.9531 18.0726L75.4007 19.4713C75.548 19.5634 75.6401 19.7105 75.6401 19.8763V22.0847C75.6401 22.2503 75.7321 22.4159 75.8793 22.4895C76.0265 22.5815 76.2105 22.5815 76.3578 22.4895L80.9955 19.7841V19.7841Z" fill="#333333"/>
<path d="M72.6587 19.3608C72.686 19.3428 72.718 19.3333 72.7507 19.3333C72.7834 19.3333 72.8153 19.3428 72.8426 19.3608L74.3334 20.2258C74.3887 20.2624 74.4255 20.3177 74.4255 20.3914V22.1213C74.4255 22.1949 74.3887 22.2501 74.3334 22.2869L72.8426 23.1519C72.8153 23.1699 72.7834 23.1795 72.7507 23.1795C72.718 23.1795 72.686 23.1699 72.6587 23.1519L71.168 22.2869C71.1127 22.2501 71.0759 22.1949 71.0759 22.1213V20.3914C71.0759 20.3177 71.1127 20.2624 71.168 20.2258L72.6587 19.3608V19.3608Z" fill="#539E43"/>
<mask id="mask0" mask-type="alpha" maskUnits="userSpaceOnUse" x="21" y="11" width="18" height="21">
<path d="M30.5693 11.5209C30.4263 11.4395 30.2645 11.3967 30.1 11.3967C29.9354 11.3967 29.7737 11.4395 29.6307 11.5209L21.8828 15.9928C21.5882 16.1584 21.4226 16.4713 21.4226 16.8025V25.7652C21.4226 26.0964 21.6067 26.4093 21.8828 26.5749L29.6307 31.0471C29.7737 31.1285 29.9354 31.1713 30.1 31.1713C30.2645 31.1713 30.4263 31.1285 30.5693 31.0471L38.3174 26.5749C38.6118 26.4093 38.7775 26.0964 38.7775 25.7652V16.8026C38.7775 16.4714 38.5933 16.1585 38.3174 15.9929L30.5693 11.5209Z" fill="white"/>
</mask>
<g mask="url(#mask0)">
<path d="M30.5693 11.5209C30.4263 11.4395 30.2645 11.3967 30.1 11.3967C29.9354 11.3967 29.7737 11.4395 29.6307 11.5209L21.8828 15.9928C21.5882 16.1584 21.4226 16.4713 21.4226 16.8025V25.7652C21.4226 26.0964 21.6067 26.4093 21.8828 26.5749L29.6307 31.0471C29.7737 31.1285 29.9354 31.1713 30.1 31.1713C30.2645 31.1713 30.4263 31.1285 30.5693 31.0471L38.3174 26.5749C38.6118 26.4093 38.7775 26.0964 38.7775 25.7652V16.8026C38.7775 16.4714 38.5933 16.1585 38.3174 15.9929L30.5693 11.5209Z" fill="url(#paint0_linear)"/>
<path d="M38.3358 15.993L30.5511 11.521C30.4746 11.4824 30.3944 11.4515 30.3118 11.429L21.5884 26.3729C21.6606 26.4611 21.7479 26.5359 21.8462 26.5938L29.6309 31.0659C29.8518 31.1947 30.1094 31.2315 30.3486 31.1578L38.5384 16.1772C38.4831 16.1036 38.4094 16.0482 38.3358 15.9931V15.993Z" fill="url(#paint1_linear)"/>
<path fill-rule="evenodd" clip-rule="evenodd" d="M38.3543 26.575C38.5752 26.4461 38.7408 26.2253 38.8145 25.9861L30.2749 11.4103C30.054 11.3735 29.8147 11.3918 29.6124 11.5207L21.8828 15.9745L30.2196 31.1759C30.3408 31.1561 30.4586 31.1189 30.5693 31.0656L38.3542 26.5751L38.3543 26.575Z" fill="url(#paint2_linear)"/>
<path fill-rule="evenodd" clip-rule="evenodd" d="M38.3541 26.5751L30.5877 31.0472C30.4781 31.1031 30.3599 31.1404 30.238 31.1576L30.3853 31.4337L38.9982 26.4464V26.3359L38.7774 25.9678C38.7406 26.2254 38.575 26.4463 38.3541 26.5751V26.5751Z" fill="url(#paint3_linear)"/>
<path fill-rule="evenodd" clip-rule="evenodd" d="M38.3541 26.5751L30.5877 31.0472C30.4781 31.1031 30.3599 31.1404 30.238 31.1576L30.3853 31.4337L38.9982 26.4464V26.3359L38.7774 25.9678C38.7406 26.2254 38.575 26.4463 38.3541 26.5751V26.5751Z" fill="url(#paint4_linear)"/>
</g>
</g>
<defs>
<linearGradient id="paint0_linear" x1="33.2566" y1="14.8547" x2="24.7641" y2="28.1989" gradientUnits="userSpaceOnUse">
<stop stop-color="#41873F"/>
<stop offset="0.3288" stop-color="#418B3D"/>
<stop offset="0.6352" stop-color="#419637"/>
<stop offset="0.9319" stop-color="#3FA92D"/>
<stop offset="1" stop-color="#3FAE2A"/>
</linearGradient>
<linearGradient id="paint1_linear" x1="28.9238" y1="22.3339" x2="50.1928" y2="10.7784" gradientUnits="userSpaceOnUse">
<stop offset="0.1376" stop-color="#41873F"/>
<stop offset="0.4032" stop-color="#54A044"/>
<stop offset="0.7136" stop-color="#66B848"/>
<stop offset="0.9081" stop-color="#6CC04A"/>
</linearGradient>
<linearGradient id="paint2_linear" x1="21.1397" y1="21.2841" x2="39.0683" y2="21.2841" gradientUnits="userSpaceOnUse">
<stop offset="0.09192" stop-color="#6CC04A"/>
<stop offset="0.2864" stop-color="#66B848"/>
<stop offset="0.5968" stop-color="#54A044"/>
<stop offset="0.8624" stop-color="#41873F"/>
</linearGradient>
<linearGradient id="paint3_linear" x1="21.1396" y1="28.7158" x2="39.068" y2="28.7158" gradientUnits="userSpaceOnUse">
<stop offset="0.09192" stop-color="#6CC04A"/>
<stop offset="0.2864" stop-color="#66B848"/>
<stop offset="0.5968" stop-color="#54A044"/>
<stop offset="0.8624" stop-color="#41873F"/>
</linearGradient>
<linearGradient id="paint4_linear" x1="41.68" y1="14.4309" x2="37.138" y2="38.2307" gradientUnits="userSpaceOnUse">
<stop stop-color="#41873F"/>
<stop offset="0.3288" stop-color="#418B3D"/>
<stop offset="0.6352" stop-color="#419637"/>
<stop offset="0.9319" stop-color="#3FA92D"/>
<stop offset="1" stop-color="#3FAE2A"/>
</linearGradient>
<clipPath id="clip0">
<rect width="81.53" height="50" fill="white"/>
</clipPath>
</defs>
</svg>
