<svg width="53" height="50" viewBox="0 0 53 50" fill="none" xmlns="http://www.w3.org/2000/svg">
<g clip-path="url(#clip0)">
<path d="M36.3486 34.7814C38.2844 34.5809 39.7531 32.9121 39.6863 30.9092C39.6197 28.9066 37.9506 27.3043 35.9479 27.3043H35.8145C33.7449 27.3711 32.1428 29.1068 32.2096 31.1762C32.2764 32.1777 32.6768 33.0455 33.2777 33.6463C31.008 38.1193 27.5367 41.3904 22.3297 44.1275C18.7916 45.9967 15.1201 46.6643 11.4486 46.1971C8.44446 45.7965 6.10799 44.4615 4.63914 42.2582C2.50307 38.9871 2.30287 35.4488 4.10533 31.9107C5.37377 29.3738 7.37623 27.5045 8.64467 26.5699C8.37766 25.702 7.97705 24.2334 7.77684 23.1654C-1.90287 30.175 -0.901437 39.6547 2.03586 44.1275C4.23873 47.4656 8.71147 49.535 13.6514 49.535C14.9865 49.535 16.3215 49.4014 17.6568 49.0678C26.2016 47.3988 32.677 42.325 36.3486 34.7814V34.7814ZM48.0977 26.5033C43.0242 20.5617 35.5475 17.2906 27.0027 17.2906H25.9346C25.3338 16.0889 24.0654 15.2877 22.6635 15.2877H22.5299C20.4607 15.3545 18.8586 17.0902 18.9252 19.1598C18.992 21.1625 20.6609 22.7648 22.6635 22.7648H22.7969C24.2656 22.698 25.534 21.7633 26.068 20.4949H27.2697C32.3432 20.4949 37.1496 21.9635 41.4889 24.8342C44.8266 27.0373 47.2299 29.908 48.565 33.3793C49.6998 36.1832 49.633 38.9203 48.4313 41.257C46.5623 44.7951 43.4248 46.7311 39.2859 46.7311C36.6156 46.7311 34.0789 45.9299 32.7436 45.3291C32.0094 45.9967 30.6742 47.0648 29.7395 47.7326C32.6102 49.0676 35.5475 49.802 38.3512 49.802C44.7598 49.802 49.4996 46.2637 51.302 42.7256C53.2379 38.8535 53.1043 32.1777 48.0977 26.5033V26.5033ZM14.1854 35.916C14.2523 37.9189 15.9211 39.5209 17.9238 39.5209H18.0574C20.1268 39.4543 21.7289 37.7184 21.6621 35.649C21.5955 33.6461 19.9264 32.0441 17.9238 32.0441H17.7904C17.6568 32.0441 17.4563 32.0441 17.3232 32.1107C14.5861 27.5711 13.4512 22.6311 13.8518 17.2904C14.1186 13.2848 15.4539 9.81332 17.7904 6.94262C19.7262 4.47254 23.4645 3.2709 26.0014 3.2043C33.0775 3.0707 36.0813 11.8828 36.2818 15.4211C37.1496 15.6213 38.6182 16.0887 39.6197 16.4225C38.8184 5.60779 32.1428 0 25.7344 0C19.7262 0 14.1854 4.33934 11.9824 10.7482C8.91168 19.2932 10.9143 27.5045 14.6527 33.9801C14.3191 34.4473 14.1186 35.1818 14.1854 35.9162V35.916Z" fill="#764ABC"/>
</g>
<defs>
<clipPath id="clip0">
<rect width="52.46" height="50" fill="white"/>
</clipPath>
</defs>
</svg>
