<svg width="50" height="39" viewBox="0 0 50 39" fill="none" xmlns="http://www.w3.org/2000/svg">
<path d="M43.0236 22.4482C41.2842 22.4575 39.7723 22.8932 38.5065 23.5373C38.0418 22.5806 37.5774 21.7283 37.4955 21.1031C37.4043 20.3738 37.2951 19.9286 37.4043 19.0572C37.5137 18.1858 38.0055 16.9449 37.9963 16.8502C37.9873 16.7556 37.8869 16.3103 36.8852 16.301C35.8834 16.2914 35.0182 16.4998 34.918 16.7745C34.8178 17.0491 34.6266 17.6743 34.499 18.3182C34.326 19.2656 32.4955 22.6468 31.4482 24.4181C31.1111 23.7268 30.8197 23.1205 30.7559 22.6375C30.6648 21.9083 30.5555 21.463 30.6648 20.5916C30.7742 19.7202 31.266 18.4795 31.2568 18.3846C31.2477 18.29 31.1475 17.8447 30.1457 17.8354C29.1438 17.8258 28.2785 18.0343 28.1785 18.3089C28.0783 18.5837 27.969 19.2276 27.7596 19.8528C27.55 20.478 25.1184 26.1233 24.4809 27.5817C24.2232 28.172 23.953 28.7563 23.6703 29.3341C23.6703 29.3341 23.6611 29.3625 23.6338 29.4099C23.545 29.591 23.454 29.771 23.3607 29.9498V29.9591C23.224 30.215 23.0783 30.4517 23.0055 30.4517C22.9508 30.4517 22.8506 29.7698 23.0236 28.8415C23.3879 26.881 24.2531 23.831 24.2441 23.7268C24.2441 23.67 24.408 23.1396 23.6795 22.8648C22.969 22.5901 22.7141 23.0447 22.6502 23.0447C22.5865 23.0447 22.5408 23.2058 22.5408 23.2058C22.5408 23.2058 23.3334 19.7771 21.0291 19.7771C19.5902 19.7771 17.6047 21.4157 16.6211 22.8932C15.503 23.526 14.3858 24.1607 13.2695 24.7971C12.7324 25.1097 12.1768 25.4223 11.6576 25.7158C11.6211 25.678 11.5848 25.6305 11.5482 25.5927C8.76133 22.4955 3.60665 20.3074 3.8252 16.1495C3.90723 14.6339 4.40801 10.6557 13.725 5.82522C21.3934 1.89434 27.4955 2.9835 28.552 5.39886C30.0637 8.8467 25.2824 15.2496 17.3588 16.1777C14.3352 16.5283 12.7504 15.3158 12.3498 14.8612C11.9309 14.3875 11.867 14.3591 11.7121 14.454C11.4572 14.5962 11.6211 15.0223 11.7121 15.2685C11.949 15.9124 12.9234 17.0491 14.5719 17.6081C16.0291 18.1005 19.5719 18.3753 23.8615 16.6514C28.6611 14.719 32.4135 9.34863 31.3115 4.84961C30.2094 0.284173 22.9234 -1.2218 16.0291 1.326C11.9309 2.84172 7.48633 5.22844 4.28965 8.33524C0.491802 12.0291 -0.10937 15.2401 0.136529 16.5852C1.02012 21.3588 7.34981 24.4656 9.88165 26.7672C9.75411 26.843 9.63555 26.9094 9.53555 26.9663C8.26954 27.6197 3.44258 30.2433 2.24043 33.0186C0.874419 36.1632 2.45918 38.4176 3.50645 38.7205C6.75782 39.6583 10.1002 37.9724 11.8943 35.1875C13.6885 32.4029 13.4699 28.7846 12.6412 27.1271C12.632 27.1082 12.6231 27.0892 12.6047 27.0703C12.9326 26.8714 13.2695 26.663 13.5975 26.4641C14.2002 26.0936 14.8105 25.7367 15.4281 25.3937C15.1184 26.2746 14.8906 27.326 14.7815 28.8415C14.6447 30.6223 15.3459 32.9333 16.2658 33.8425C16.6758 34.2406 17.1584 34.2499 17.4682 34.2499C18.5428 34.2499 19.0256 33.3216 19.5629 32.2229C20.2186 30.878 20.8106 29.3152 20.8106 29.3152C20.8106 29.3152 20.0729 33.5396 22.0766 33.5396C22.8051 33.5396 23.5428 32.5544 23.8707 32.0525V32.0619C23.8707 32.0619 23.8889 32.0334 23.9254 31.9672C23.9982 31.8441 24.0438 31.7681 24.0438 31.7681V31.7495C24.3352 31.2189 24.991 30.016 25.9654 28.0174C27.2223 25.4412 28.4336 22.2209 28.4336 22.2209C28.4336 22.2209 28.543 23.007 28.9162 24.3141C29.135 25.0813 29.59 25.9242 29.9545 26.7388C29.6631 27.1651 29.4809 27.4018 29.4809 27.4018L29.49 27.4113C29.2531 27.7333 28.9982 28.0837 28.7158 28.4249C27.7231 29.656 26.5393 31.0676 26.3752 31.4746C26.1838 31.9577 26.2295 32.3083 26.5939 32.5924C26.858 32.8008 27.3315 32.8291 27.8143 32.8008C28.7068 32.7344 29.3352 32.5071 29.6447 32.3651C30.1275 32.1852 30.6922 31.9103 31.2203 31.5031C32.1949 30.7547 32.7867 29.6845 32.7322 28.2734C32.7049 27.4966 32.459 26.7199 32.1584 25.9905C32.2496 25.858 32.3315 25.7254 32.4227 25.5927C33.9617 23.2531 35.1549 20.6863 35.1549 20.6863C35.1549 20.6863 35.2643 21.4723 35.6375 22.7797C35.8197 23.4427 36.1932 24.1625 36.5209 24.8633C35.0729 26.0853 34.1803 27.506 33.8615 28.4342C33.2879 30.1582 33.734 30.9347 34.5811 31.1147C34.9635 31.2 35.51 31.0105 35.9107 30.8305C36.4207 30.6601 37.0219 30.3666 37.5957 29.9307C38.5703 29.1826 39.5082 28.1405 39.4535 26.7294C39.4262 26.0853 39.2623 25.4505 39.0346 24.8349C40.2641 24.3047 41.8488 24.011 43.8705 24.2572C48.2059 24.7875 49.0619 27.6006 48.8979 28.7848C48.734 29.9687 47.8232 30.6128 47.5229 30.8116C47.2221 31.0107 47.1221 31.0769 47.1494 31.2189C47.1857 31.4273 47.3315 31.418 47.5865 31.38C47.9418 31.3137 49.8635 30.4232 49.9453 28.2447C50.082 25.4601 47.5318 22.4197 43.0236 22.4482V22.4482ZM9.58106 34.1742C8.142 35.8032 6.13848 36.4189 5.27325 35.8981C4.34434 35.3391 4.7086 32.9333 6.4754 31.2095C7.55001 30.1582 8.93438 29.1824 9.8543 28.5858C10.0637 28.4531 10.3734 28.2638 10.7469 28.027C10.8106 27.989 10.8471 27.9701 10.8471 27.9701L11.0656 27.8279C11.7121 30.2906 11.093 32.4598 9.58106 34.1742V34.1742ZM20.0547 26.7672C19.5537 28.0365 18.5065 31.2853 17.869 31.1053C17.3225 30.9538 16.9854 28.4911 17.7596 26.0569C18.1512 24.8349 18.9799 23.3762 19.4627 22.8081C20.2459 21.8987 21.1111 21.5954 21.3205 21.9651C21.5848 22.4482 20.3643 25.9716 20.0547 26.7672V26.7672ZM28.6977 31.0674C28.4881 31.1811 28.2879 31.2569 28.1967 31.2C28.133 31.162 28.2879 31.0105 28.2879 31.0105C28.2879 31.0105 29.3717 29.7982 29.7996 29.2488C30.0457 28.9268 30.3369 28.548 30.6467 28.1216V28.2447C30.6467 29.694 29.2986 30.6696 28.6975 31.0674H28.6977ZM35.3643 29.4856C35.2094 29.3719 35.2367 28.993 35.7559 27.809C35.9563 27.3449 36.4297 26.5683 37.2404 25.82C37.3315 26.1231 37.3953 26.4168 37.3861 26.6914C37.377 28.5196 36.1203 29.2015 35.3643 29.4856Z" fill="#CD6799"/>
</svg>
