<svg width="50" height="50" viewBox="0 0 50 50" fill="none" xmlns="http://www.w3.org/2000/svg">
<path d="M0 25V50H50V0H0V25Z" fill="#007ACC"/>
<path d="M11.0568 25.1661L11.041 27.2135H17.5488V45.7057H22.1523V27.2135H28.6602V25.2057C28.6602 24.0944 28.6363 23.1659 28.6047 23.142C28.5809 23.1104 24.6205 23.0944 19.8189 23.1024L11.0809 23.1262L11.057 25.1659L11.0568 25.1661Z" fill="white"/>
<path d="M40.3451 23.0681C41.6148 23.3856 42.5832 23.9489 43.4721 24.8696C43.9324 25.3618 44.6148 26.2587 44.6705 26.473C44.6861 26.5364 42.5117 27.9968 41.1943 28.8142C41.1467 28.846 40.956 28.6396 40.7418 28.322C40.099 27.3856 39.4244 26.9808 38.3926 26.9095C36.8769 26.8062 35.9006 27.5999 35.9086 28.9251C35.9086 29.3142 35.964 29.5442 36.1228 29.8618C36.4562 30.5523 37.0752 30.9649 39.0197 31.8062C42.599 33.346 44.1307 34.3618 45.0832 35.8062C46.1467 37.4175 46.3848 39.9888 45.6625 41.9015C44.8689 43.9808 42.9008 45.3937 40.1306 45.8618C39.2736 46.0126 37.242 45.9888 36.3213 45.8222C34.3135 45.4649 32.4086 44.473 31.234 43.1714C30.7736 42.6634 29.8767 41.338 29.9324 41.2427C29.9562 41.211 30.1625 41.0841 30.3926 40.9491C30.6148 40.8222 31.4562 40.3378 32.2498 39.8776L33.6863 39.0442L33.9879 39.4888C34.4086 40.1315 35.3291 41.0126 35.8848 41.3062C37.4799 42.1476 39.6705 42.0284 40.7498 41.0601C41.2101 40.6396 41.4006 40.203 41.4006 39.5601C41.4006 38.9808 41.3291 38.7269 41.0275 38.2905C40.6389 37.7349 39.8451 37.2665 37.591 36.2905C35.0117 35.1792 33.9006 34.4888 32.8848 33.3935C32.2974 32.7587 31.7418 31.7427 31.5117 30.8935C31.3213 30.1872 31.2734 28.4173 31.4244 27.703C31.9562 25.2108 33.8371 23.473 36.5514 22.9569C37.4322 22.7903 39.4799 22.8538 40.3451 23.0683V23.0681Z" fill="white"/>
</svg>
