<svg width="45" height="50" viewBox="0 0 45 50" fill="none" xmlns="http://www.w3.org/2000/svg">
<g clip-path="url(#clip0)">
<path d="M22.0699 0.00830078L44.1389 12.4919V37.4673L22.0699 49.9509L0.000976562 37.4673V12.4919L22.0699 0.00830078Z" fill="white"/>
<path d="M40.1999 36.6012L22.803 46.453V38.7914L33.6459 32.8204L40.1999 36.6012ZM41.3907 35.5269V14.9404L35.0283 18.6128V31.8542L41.3907 35.5269V35.5269ZM3.87348 36.6011L21.2705 46.4449V38.7831L10.4276 32.8204L3.87348 36.6012V36.6011ZM2.68262 35.5269V14.9404L9.0452 18.6128V31.8542L2.68262 35.5269V35.5269ZM3.424 13.608L21.2705 3.51433V10.9264L9.83641 17.2138L9.74469 17.2638L3.424 13.6078V13.608ZM40.6412 13.608L22.803 3.51416V10.9262L34.2288 17.2219L34.3204 17.2719L40.6412 13.6076V13.608Z" fill="#8ED6FB"/>
<path d="M21.2705 37.0425L10.5774 31.1546V19.5039L21.2705 25.6749V37.0425V37.0425ZM22.8029 37.0425L33.496 31.163V19.5039L22.8029 25.6749V37.0425V37.0425ZM11.2936 18.1547L22.0367 12.2502L32.7712 18.1547L22.0367 24.3508L11.2936 18.1547V18.1547Z" fill="#1C78C0"/>
</g>
<defs>
<clipPath id="clip0">
<rect width="44.14" height="50" fill="white"/>
</clipPath>
</defs>
</svg>
