<svg width="144" height="144" viewBox="0 0 144 144" fill="none" xmlns="http://www.w3.org/2000/svg">
<g filter="url(#filter0_f)">
<path d="M71.3971 133.165C105.621 133.055 133.275 105.222 133.165 70.9981C133.055 36.7745 105.222 9.12023 70.9981 9.23043C36.7745 9.34063 9.12024 37.1736 9.23044 71.3971C9.34064 105.621 37.1736 133.275 71.3971 133.165Z" fill="url(#paint0_linear)"/>
<path d="M72.2133 10.0542C37.9898 9.94824 10.1602 37.6059 10.0543 71.8294C9.94827 106.053 37.606 133.882 71.8294 133.988C106.053 134.094 133.882 106.437 133.988 72.2132C134.094 37.9897 106.437 10.1602 72.2133 10.0542Z" fill="url(#paint1_linear)"/>
</g>
<defs>
<filter id="filter0_f" x="0.0309067" y="0.0308838" width="143.149" height="143.149" filterUnits="userSpaceOnUse" color-interpolation-filters="sRGB">
<feFlood flood-opacity="0" result="BackgroundImageFix"/>
<feBlend mode="normal" in="SourceGraphic" in2="BackgroundImageFix" result="shape"/>
<feGaussianBlur stdDeviation="4.5" result="effect1_foregroundBlur"/>
</filter>
<linearGradient id="paint0_linear" x1="70.9981" y1="9.23033" x2="71.3971" y2="133.165" gradientUnits="userSpaceOnUse">
<stop stop-color="#D8BBFF"/>
<stop offset="1" stop-color="#B0C5E6" stop-opacity="0"/>
</linearGradient>
<linearGradient id="paint1_linear" x1="71.8294" y1="133.988" x2="72.2132" y2="10.054" gradientUnits="userSpaceOnUse">
<stop stop-color="#C0FDFF"/>
<stop offset="1" stop-color="#B0C5E6" stop-opacity="0"/>
</linearGradient>
</defs>
</svg>
