<svg width="187" height="171" viewBox="0 0 187 171" fill="none" xmlns="http://www.w3.org/2000/svg">
<path d="M119.921 0.502607C133.029 1.77689 144.865 8.65011 155.8 15.9894C166.972 23.4872 179.643 31.2325 184.439 43.8032C189.258 56.4344 182.961 70.3643 181.679 83.8226C180.592 95.237 180.025 106.412 177.414 117.576C174.638 129.443 173.794 142.637 165.775 151.815C157.748 161.003 145.212 165.001 133.379 167.979C122.346 170.756 111 168.467 99.6226 168.465C88.1983 168.463 76.1847 172.566 65.7279 167.965C55.2674 163.362 51.0966 150.779 42.4481 143.308C32.4957 134.711 18.014 131.487 10.7825 120.502C3.29286 109.126 -2.28115 94.2346 1.53395 81.1591C5.46319 67.6924 21.1984 61.7905 30.8762 51.6351C38.6197 43.5093 44.5493 34.0667 53.2126 26.9296C62.2182 19.5106 71.9148 13.1868 82.7626 8.88938C94.6981 4.16105 107.143 -0.739529 119.921 0.502607Z" fill="url(#paint0_linear)"/>
<defs>
<linearGradient id="paint0_linear" x1="93.2642" y1="0.307129" x2="93.2642" y2="170.148" gradientUnits="userSpaceOnUse">
<stop stop-color="#C3BEF0"/>
<stop offset="1" stop-color="#C3BEF0" stop-opacity="0"/>
</linearGradient>
</defs>
</svg>
