<svg width="1201" height="288" viewBox="0 0 1201 288" fill="none" xmlns="http://www.w3.org/2000/svg">
<path fill-rule="evenodd" clip-rule="evenodd" d="M0.46936 0L50.4694 12C100.469 24 200.469 48 300.469 66C400.469 84 500.469 96 600.469 102C700.469 108 800.469 108 900.469 114C1000.47 120 1100.47 132 1150.47 138L1200.47 144V288H1150.47C1100.47 288 1000.47 288 900.469 288C800.469 288 700.469 288 600.469 288C500.469 288 400.469 288 300.469 288C200.469 288 100.469 288 50.4694 288H0.46936V0Z" fill="url(#paint0_linear)" fill-opacity="0.1"/>
<defs>
<linearGradient id="paint0_linear" x1="600.469" y1="5.82835e-08" x2="600" y2="288" gradientUnits="userSpaceOnUse">
<stop stop-color="#B0C5E6"/>
<stop offset="1" stop-color="#B0C5E6" stop-opacity="0"/>
</linearGradient>
</defs>
</svg>
