<svg width="16" height="16" viewBox="0 0 16 16" fill="none" xmlns="http://www.w3.org/2000/svg">
<g clip-path="url(#clip0)">
<path d="M10 0.277993C9.90239 0.396606 9.84259 0.541765 9.82832 0.694716C9.81406 0.847667 9.846 1.00138 9.92 1.13599C10.4981 2.19747 10.8001 3.38729 10.798 4.59599C10.798 8.61699 7.52 11.873 3.48 11.873C2.953 11.873 2.44 11.818 1.947 11.713C1.79587 11.6803 1.63846 11.6928 1.4944 11.749C1.35035 11.8052 1.22604 11.9026 1.137 12.029C1.04301 12.1604 0.995093 12.3193 1.0007 12.4808C1.00631 12.6423 1.06512 12.7974 1.168 12.922C1.95232 13.8854 2.94175 14.6617 4.06417 15.1942C5.18658 15.7267 6.41368 16.002 7.656 16C12.266 16 16 12.286 16 7.70999C16 4.26599 13.886 1.31199 10.876 0.0599933C10.7261 -0.00337482 10.5596 -0.0163809 10.4017 0.022929C10.2437 0.0622388 10.1027 0.151742 10 0.277993V0.277993Z" fill="#FADB5F"/>
<path d="M5.206 3.148C5.19166 3.10469 5.16404 3.06701 5.12706 3.0403C5.09008 3.01359 5.04562 2.99921 5 2.99921C4.95438 2.99921 4.90992 3.01359 4.87294 3.0403C4.83596 3.06701 4.80834 3.10469 4.794 3.148L4.407 4.31C4.234 4.828 3.828 5.234 3.31 5.407L2.148 5.794C2.10469 5.80834 2.06701 5.83596 2.0403 5.87294C2.01359 5.90992 1.99921 5.95438 1.99921 6C1.99921 6.04562 2.01359 6.09007 2.0403 6.12705C2.06701 6.16404 2.10469 6.19166 2.148 6.206L3.31 6.593C3.56548 6.67811 3.79762 6.82156 3.98803 7.01197C4.17844 7.20238 4.32188 7.43452 4.407 7.69L4.794 8.852C4.80834 8.8953 4.83596 8.93299 4.87294 8.9597C4.90992 8.98641 4.95438 9.00078 5 9.00078C5.04562 9.00078 5.09008 8.98641 5.12706 8.9597C5.16404 8.93299 5.19166 8.8953 5.206 8.852L5.593 7.69C5.67812 7.43452 5.82156 7.20238 6.01197 7.01197C6.20238 6.82156 6.43452 6.67811 6.69 6.593L7.852 6.206C7.89531 6.19166 7.93299 6.16404 7.9597 6.12705C7.98641 6.09007 8.00079 6.04562 8.00079 6C8.00079 5.95438 7.98641 5.90992 7.9597 5.87294C7.93299 5.83596 7.89531 5.80834 7.852 5.794L6.69 5.407C6.43452 5.32188 6.20238 5.17843 6.01197 4.98802C5.82156 4.79761 5.67812 4.56547 5.593 4.31L5.206 3.148V3.148ZM2.137 0.098998C2.12713 0.0705243 2.10863 0.0458339 2.08408 0.0283596C2.05952 0.0108853 2.03014 0.00149536 2 0.00149536C1.96986 0.00149536 1.94048 0.0108853 1.91592 0.0283596C1.89137 0.0458339 1.87287 0.0705243 1.863 0.098998L1.605 0.872998C1.49 1.219 1.219 1.49 0.873 1.605L0.099 1.863C0.0705263 1.87287 0.0458356 1.89137 0.0283613 1.91592C0.010887 1.94047 0.00149727 1.96986 0.00149727 2C0.00149727 2.03013 0.010887 2.05952 0.0283613 2.08407C0.0458356 2.10863 0.0705263 2.12713 0.099 2.137L0.873 2.395C1.04351 2.45172 1.19845 2.54741 1.32552 2.67448C1.45258 2.80155 1.54828 2.95649 1.605 3.127L1.863 3.901C1.87287 3.92947 1.89137 3.95416 1.91592 3.97164C1.94048 3.98911 1.96986 3.9985 2 3.9985C2.03014 3.9985 2.05952 3.98911 2.08408 3.97164C2.10863 3.95416 2.12713 3.92947 2.137 3.901L2.395 3.127C2.45172 2.95649 2.54742 2.80155 2.67448 2.67448C2.80155 2.54741 2.95649 2.45172 3.127 2.395L3.901 2.137C3.92947 2.12713 3.95416 2.10863 3.97164 2.08407C3.98911 2.05952 3.9985 2.03013 3.9985 2C3.9985 1.96986 3.98911 1.94047 3.97164 1.91592C3.95416 1.89137 3.92947 1.87287 3.901 1.863L3.127 1.605C2.781 1.49 2.51 1.219 2.395 0.872998L2.137 0.099998V0.098998Z" fill="#FADB5F"/>
</g>
<defs>
<clipPath id="clip0">
<rect width="16" height="16" fill="white" transform="matrix(-1 0 0 1 16 0)"/>
</clipPath>
</defs>
</svg>
